<svg xmlns="http://www.w3.org/2000/svg" viewBox="0 0 960 300" role="img" aria-labelledby="title desc">
  <title id="title">SKORM Agency</title>
  <desc id="desc">SKORM Agency logo</desc>
  <rect width="960" height="300" rx="0" fill="none"/>
  <g fill="#f7f7f4">
    <path d="M78 83h173c17 0 30 13 30 30v3h-35v-2c0-4-3-7-7-7H93c-4 0-7 3-7 7v13c0 4 3 7 7 7h143c31 0 55 24 55 55v1c0 31-24 55-55 55H63c-17 0-30-13-30-30v-3h35v2c0 4 3 7 7 7h158c11 0 20-9 20-20s-9-20-20-20H90c-22 0-40-18-40-40v-14c0-23 18-41 40-41Z"/>
    <path d="M342 84h38v57h32l100-57h60l-129 75 137 86h-64l-105-66h-31v66h-38V84Z"/>
    <path d="M641 84h184c42 0 76 34 76 76v9c0 42-34 76-76 76H641c-42 0-76-34-76-76v-9c0-42 34-76 76-76Zm4 34c-23 0-42 19-42 42v9c0 23 19 42 42 42h176c23 0 42-19 42-42v-9c0-23-19-42-42-42H645Z"/>
    <path d="M918 84h9l-1 161h-36V130l-86 115h-34L684 130v115h-36V84h10c20 0 38 9 50 25l79 105 79-105c12-16 31-25 52-25Z" transform="translate(-1 0)"/>
  </g>
  <g fill="#f7f7f4" font-family="Arial, Helvetica, sans-serif" text-anchor="middle">
    <text x="480" y="279" font-size="24" font-weight="600" letter-spacing="10">MANAGEMENT · COMMUNICATION · PARTNERSHIPS · AI · TRAINING</text>
    <text x="480" y="235" font-size="42" font-weight="400" letter-spacing="34">AGENCY</text>
  </g>
</svg>
